<svg xmlns="http://www.w3.org/2000/svg" viewBox="0 0 86.12 85.71"><defs><style>.cls-1{fill:#ff978f;}</style></defs><title>minderz_logoArtboard 35 copy 2</title><g id="Facebook_-_Profile_Picture" data-name="Facebook - Profile Picture"><g id="Logo-10" data-name="Logo"><g id="ptPU8N"><path class="cls-1" d="M20.24,21.55c1.81.76,1.79,4.09.47,5.2a1.27,1.27,0,0,1-1.88-.16A3.76,3.76,0,0,1,19,22a1.81,1.81,0,0,1,.74-.48A.84.84,0,0,1,20.24,21.55Z"/><path class="cls-1" d="M25.07,21.5c1.59.68,1.78,4,.5,5.17a1.27,1.27,0,0,1-1.92-.14A3.77,3.77,0,0,1,23.78,22a1.81,1.81,0,0,1,.75-.48A.84.84,0,0,1,25.07,21.5Z"/><path class="cls-1" d="M15.51,27.61c0-.75.15-1.26.69-1.5a1.26,1.26,0,0,1,1.45.4,3,3,0,0,1,1,2.89,1,1,0,0,1-1.72.68A3,3,0,0,1,15.51,27.61Z"/><path class="cls-1" d="M28.84,27.85A3.1,3.1,0,0,1,27.69,30a1.29,1.29,0,0,1-1.47.32,1.31,1.31,0,0,1-.63-1.42,3.16,3.16,0,0,1,1.08-2.19,1.35,1.35,0,0,1,1.55-.39C28.8,26.55,28.87,27.12,28.84,27.85Z"/></g><path class="cls-1" d="M61.15,37.45a10.9,10.9,0,0,0-4.79-4.92,12.61,12.61,0,0,0-10.86-.09,8.45,8.45,0,0,0-2.63,2.18,1.13,1.13,0,0,1-1.72.05,10.3,10.3,0,0,0-3-2.3,11.86,11.86,0,0,0-5.42-1.27,11.86,11.86,0,0,0-5.44,1.18l-.41.25.42.7a2.47,2.47,0,0,1,.38,2.15,2.57,2.57,0,0,1-1.81,1.37l-.07,0a2.65,2.65,0,0,1-1.26-.07l-.28-.12a3.51,3.51,0,0,1-.71-.35,2.72,2.72,0,0,0-2-.46,6.11,6.11,0,0,0-.82.21l-.18,22a1.09,1.09,0,0,0,1.08,1.1l3.61,0A1.09,1.09,0,0,0,26.33,58l.11-13.13a10.63,10.63,0,0,1,1.27-5.39,5.33,5.33,0,0,1,5-2.59,5.34,5.34,0,0,1,5,2.75,11.13,11.13,0,0,1,1.13,5.52l-.11,12.93a1.09,1.09,0,0,0,1.08,1.1l3.61,0a1.09,1.09,0,0,0,1.1-1.08l.11-12.93v-.11a11.08,11.08,0,0,1,1.24-5.45,5.38,5.38,0,0,1,5-2.62,5.34,5.34,0,0,1,5,2.75,10.91,10.91,0,0,1,1.15,5.52L57,58.26A1.09,1.09,0,0,0,58,59.37l3.58,0a1.09,1.09,0,0,0,1.1-1.08l.11-12.93A16.91,16.91,0,0,0,61.15,37.45Z"/><path class="cls-1" d="M25.7,32.91c-.44-.77-.88-1.44-1.32-2.07-.23-.33-.47-.65-.71-.95a2.1,2.1,0,0,0-1.59-.75,2.15,2.15,0,0,0-1.61.64,22.53,22.53,0,0,0-2.22,2.93,1.44,1.44,0,0,0-.33,1.13c.09.28.39.52.92.74a1.34,1.34,0,0,0,.71,0,5.5,5.5,0,0,1,.52-.19c.29-.11.58-.21.88-.29a5.06,5.06,0,0,1,.54-.14,2.81,2.81,0,0,1,2.13.47,2.3,2.3,0,0,0,.44.21l.19.08a1.45,1.45,0,0,0,.71,0c.54-.18.87-.41,1-.69A1.43,1.43,0,0,0,25.7,32.91Z"/><circle class="cls-1" cx="69.39" cy="56.54" r="2.85" transform="translate(12.28 125.47) rotate(-89.53)"/></g></g></svg>